<?xml version="1.0" standalone="no"?><!DOCTYPE svg PUBLIC "-//W3C//DTD SVG 1.1//EN" "http://www.w3.org/Graphics/SVG/1.1/DTD/svg11.dtd"><svg width="100%" height="100%" viewBox="0 0 476 476" version="1.1" xmlns="http://www.w3.org/2000/svg" xmlns:xlink="http://www.w3.org/1999/xlink" xml:space="preserve" style="fill-rule:evenodd;clip-rule:evenodd;stroke-linejoin:round;stroke-miterlimit:1.41421;"><path d="M237.555,173.185l153.76,-153.76l64.37,64.371l-153.759,153.759l153.759,153.76l-64.37,64.37l-153.76,-153.759l-153.759,153.759l-64.371,-64.37l153.76,-153.76l-153.76,-153.759l64.371,-64.371l153.759,153.76Z" style="fill:#272a37;"/><path d="M391.315,3.565l0,0l80.231,80.231l-153.76,153.759l153.76,153.76l-80.231,80.231l-153.76,-153.76l-153.759,153.76l-80.231,-80.231l0,0l153.759,-153.76l-153.759,-153.759c0,0 80.231,-80.231 80.231,-80.231c0,0 153.759,153.759 153.759,153.759l153.76,-153.759ZM35.286,83.796l153.759,153.759l-153.759,153.76l48.51,48.509l153.759,-153.759l153.76,153.759l48.509,-48.509l-153.759,-153.76l153.759,-153.759l-48.509,-48.51l-153.76,153.759l-153.759,-153.759l-48.51,48.51Z" style="fill:#272a37;"/></svg>