<?xml version="1.0" standalone="no"?>
<!DOCTYPE svg PUBLIC "-//W3C//DTD SVG 1.1//EN" "http://www.w3.org/Graphics/SVG/1.1/DTD/svg11.dtd">
<svg width="100%" height="100%" viewBox="0 0 821 84" version="1.1" xmlns="http://www.w3.org/2000/svg" xmlns:xlink="http://www.w3.org/1999/xlink" xml:space="preserve" style="fill-rule:evenodd;clip-rule:evenodd;stroke-linejoin:round;stroke-miterlimit:1.41421;">
    <g transform="matrix(0.782583,0,0,0.782583,-314.066,-508.589)">
        <path d="M461.751,738.254L461.751,755.888L433.616,755.888C432.163,755.888 430.776,755.756 429.455,755.492C428.134,755.228 426.747,754.897 425.294,754.501C418.029,751.595 412.217,747.434 407.858,742.019C403.499,736.603 401.319,729.866 401.319,721.808L401.319,650.875L402.112,650.875L402.112,649.885L461.751,649.885L461.751,676.831L443.721,676.831L443.721,667.717L419.152,667.717L419.152,722.799C419.416,727.026 421.133,730.626 424.303,733.598C427.474,736.57 431.238,738.056 435.597,738.056L435.597,738.254L461.751,738.254Z" style="fill:white;fill-rule:nonzero;"/>
        <path d="M531.298,755.69L513.465,755.69L513.465,726.167C513.465,722.073 512.111,718.506 509.403,715.468C506.696,712.43 503.426,710.581 499.596,709.92L488.5,709.92L488.5,738.056L497.218,738.056L497.218,755.69L470.668,755.69L470.668,709.92L465.714,709.92L465.714,692.286L470.668,692.286L470.668,649.885L525.155,649.885L525.155,678.614C524.891,681.124 524.396,683.502 523.669,685.747C522.943,687.993 522.051,690.172 520.994,692.286C519.674,694.532 518.287,696.447 516.834,698.032C521.061,701.466 524.462,705.264 527.038,709.425C529.613,713.586 531.033,718.44 531.298,723.988C531.43,724.516 531.496,725.243 531.496,726.167L531.298,755.69ZM490.878,692.088C495.501,692.088 499.397,690.47 502.568,687.233C505.738,683.997 507.323,680.067 507.323,675.444L507.323,667.717L488.5,667.717L488.5,692.088L490.878,692.088Z" style="fill:white;fill-rule:nonzero;"/>
        <path d="M595.692,723.79C595.56,724.186 595.494,724.781 595.494,725.573C594.834,731.121 592.984,736.14 589.946,740.632C586.908,745.123 582.946,748.755 578.058,751.529C577.926,751.529 577.794,751.595 577.662,751.727C575.416,752.916 572.973,753.874 570.331,754.6C567.689,755.327 564.915,755.69 562.009,755.69L554.48,755.69L554.48,738.056L561.613,738.056L561.613,737.858C565.84,737.858 569.472,736.471 572.51,733.697C575.548,730.923 577.266,727.488 577.662,723.394C577.794,723.261 577.86,723.129 577.86,722.997L577.86,716.855L569.736,716.855C568.812,716.855 567.293,716.723 565.179,716.459C563.066,716.195 560.754,715.633 558.244,714.775C555.735,713.916 553.126,712.727 550.418,711.208C547.71,709.689 545.233,707.642 542.988,705.066C540.742,702.49 538.926,699.353 537.539,695.654C536.152,691.956 535.459,687.531 535.459,682.379L535.459,649.885L553.291,649.885L553.291,684.36C553.291,686.474 553.753,688.455 554.678,690.305C555.603,692.154 556.824,693.739 558.343,695.06C559.862,696.381 561.613,697.405 563.594,698.131C565.575,698.858 567.623,699.221 569.736,699.221L577.86,699.221L577.86,649.885L595.692,649.885L595.692,723.79Z" style="fill:white;fill-rule:nonzero;"/>
        <path d="M664.248,679.605C664.248,683.172 663.554,686.705 662.168,690.206C660.781,693.706 658.733,696.909 656.025,699.815C653.317,702.721 649.982,705.099 646.019,706.948C642.057,708.797 637.565,709.788 632.546,709.92L622.441,709.92L622.441,738.056L631.159,738.056L631.159,755.888L604.609,755.888L604.609,709.92L599.655,709.92L599.655,692.286L604.609,692.286L604.609,649.885L631.159,649.885C636.311,649.885 640.901,650.743 644.93,652.46C648.958,654.177 652.426,656.423 655.332,659.197C658.238,661.971 660.45,665.141 661.969,668.708C663.488,672.274 664.248,675.907 664.248,679.605ZM632.942,692.286C636.377,692.286 639.547,691.361 642.453,689.512C645.359,687.663 646.812,684.493 646.812,680.001C646.812,675.378 645.227,672.175 642.057,670.392C638.886,668.609 635.254,667.717 631.159,667.717L622.441,667.717L622.441,692.286L632.942,692.286Z" style="fill:white;fill-rule:nonzero;"/>
        <path d="M727.652,667.717L706.848,667.717L706.848,756.086L681.684,756.086L681.684,738.254L689.015,738.254L689.015,667.717L668.211,667.717L668.211,649.885L727.652,649.885L727.652,667.717Z" style="fill:white;fill-rule:nonzero;"/>
        <path d="M792.245,678.813C792.245,679.077 792.245,679.968 792.245,681.487C792.245,683.007 792.278,684.856 792.344,687.035C792.41,689.215 792.476,691.659 792.542,694.366C792.608,697.074 792.641,699.815 792.641,702.589C792.641,709.194 792.707,716.525 792.839,724.582C792.839,730.13 791.915,734.786 790.065,738.551C788.216,742.316 786.169,745.321 783.923,747.566C781.281,750.208 778.309,752.256 775.007,753.709C774.346,753.973 773.719,754.237 773.125,754.501C772.53,754.765 771.804,754.997 770.945,755.195C770.086,755.393 768.964,755.525 767.577,755.591C766.19,755.657 764.44,755.69 762.326,755.69C758.76,755.69 755.16,755.096 751.528,753.907C747.895,752.718 744.593,750.836 741.621,748.26C738.649,745.684 736.238,742.349 734.389,738.254C732.539,734.159 731.615,729.272 731.615,723.592L731.615,683.172C731.615,679.341 732.143,675.841 733.2,672.67C734.257,669.5 735.644,666.66 737.361,664.15C739.078,661.641 740.993,659.428 743.107,657.513C745.22,655.597 747.334,654.045 749.447,652.857C751.296,651.8 753.212,651.106 755.193,650.776C757.175,650.446 759.222,650.281 761.335,650.281C773.752,650.281 782.866,655.829 788.678,666.924C789.471,668.377 790.263,670.359 791.056,672.868C791.849,675.378 792.245,677.36 792.245,678.813ZM775.007,708.93C772.629,710.383 770.086,711.208 767.379,711.406C764.671,711.604 761.798,711.703 758.76,711.703L758.76,693.277L759.75,693.277C761.6,693.145 763.416,692.847 765.199,692.385C766.982,691.923 768.567,691.196 769.954,690.206C771.341,689.215 772.464,687.894 773.323,686.243C774.181,684.592 774.611,682.577 774.611,680.2C774.611,679.011 774.379,677.657 773.917,676.138C773.455,674.619 772.728,673.232 771.738,671.977C770.747,670.722 769.492,669.665 767.973,668.807C766.454,667.948 764.638,667.519 762.524,667.519C760.411,667.519 758.528,668.014 756.877,669.005C755.226,669.995 753.872,671.283 752.815,672.868C751.759,674.454 750.966,676.237 750.438,678.218C749.909,680.2 749.645,682.181 749.645,684.162L749.447,723.79C749.579,725.639 749.909,727.455 750.438,729.239C750.966,731.022 751.726,732.64 752.716,734.093C753.707,735.546 754.962,736.735 756.481,737.659C758,738.584 759.816,739.046 761.93,739.046C764.043,739.046 765.926,738.551 767.577,737.56C769.228,736.57 770.582,735.282 771.639,733.697C772.695,732.112 773.521,730.328 774.115,728.347C774.71,726.366 775.007,724.384 775.007,722.403L775.007,708.93Z" style="fill:white;fill-rule:nonzero;"/>
        <path d="M861.395,679.605C861.395,683.172 860.701,686.705 859.314,690.206C857.927,693.706 855.88,696.909 853.172,699.815C850.464,702.721 847.129,705.099 843.166,706.948C839.203,708.797 834.712,709.788 829.693,709.92L819.588,709.92L819.588,738.056L828.306,738.056L828.306,755.888L801.755,755.888L801.755,709.92L796.802,709.92L796.802,692.286L801.755,692.286L801.755,649.885L828.306,649.885C833.457,649.885 838.048,650.743 842.076,652.46C846.105,654.177 849.573,656.423 852.479,659.197C855.385,661.971 857.597,665.141 859.116,668.708C860.635,672.274 861.395,675.907 861.395,679.605ZM830.089,692.286C833.524,692.286 836.694,691.361 839.6,689.512C842.506,687.663 843.959,684.493 843.959,680.001C843.959,675.378 842.374,672.175 839.203,670.392C836.033,668.609 832.401,667.717 828.306,667.717L819.588,667.717L819.588,692.286L830.089,692.286Z" style="fill:white;fill-rule:nonzero;"/>
        <path d="M930.941,755.69L913.109,755.69L913.109,726.167C913.109,722.073 911.755,718.506 909.047,715.468C906.339,712.43 903.07,710.581 899.239,709.92L888.143,709.92L888.143,738.056L896.862,738.056L896.862,755.69L870.311,755.69L870.311,709.92L865.358,709.92L865.358,692.286L870.311,692.286L870.311,649.885L924.799,649.885L924.799,678.614C924.535,681.124 924.039,683.502 923.313,685.747C922.586,687.993 921.695,690.172 920.638,692.286C919.317,694.532 917.93,696.447 916.477,698.032C920.704,701.466 924.105,705.264 926.681,709.425C929.257,713.586 930.677,718.44 930.941,723.988C931.073,724.516 931.139,725.243 931.139,726.167L930.941,755.69ZM890.521,692.088C895.144,692.088 899.041,690.47 902.211,687.233C905.381,683.997 906.967,680.067 906.967,675.444L906.967,667.717L888.143,667.717L888.143,692.088L890.521,692.088Z" style="fill:white;fill-rule:nonzero;"/>
        <path d="M995.732,678.813C995.732,679.077 995.732,679.968 995.732,681.487C995.732,683.007 995.765,684.856 995.831,687.035C995.897,689.215 995.963,691.659 996.029,694.366C996.095,697.074 996.128,699.815 996.128,702.589C996.128,709.194 996.195,716.525 996.327,724.582C996.327,730.13 995.402,734.786 993.553,738.551C991.703,742.316 989.656,745.321 987.41,747.566C984.769,750.208 981.797,752.256 978.494,753.709C977.834,753.973 977.206,754.237 976.612,754.501C976.018,754.765 975.291,754.997 974.432,755.195C973.574,755.393 972.451,755.525 971.064,755.591C969.677,755.657 967.927,755.69 965.813,755.69C962.247,755.69 958.647,755.096 955.015,753.907C951.382,752.718 948.08,750.836 945.108,748.26C942.136,745.684 939.725,742.349 937.876,738.254C936.027,734.159 935.102,729.272 935.102,723.592L935.102,683.172C935.102,679.341 935.63,675.841 936.687,672.67C937.744,669.5 939.131,666.66 940.848,664.15C942.565,661.641 944.481,659.428 946.594,657.513C948.708,655.597 950.821,654.045 952.934,652.857C954.784,651.8 956.699,651.106 958.68,650.776C960.662,650.446 962.709,650.281 964.823,650.281C977.239,650.281 986.354,655.829 992.166,666.924C992.958,668.377 993.751,670.359 994.543,672.868C995.336,675.378 995.732,677.36 995.732,678.813ZM978.494,708.93C976.117,710.383 973.574,711.208 970.866,711.406C968.158,711.604 965.285,711.703 962.247,711.703L962.247,693.277L963.238,693.277C965.087,693.145 966.903,692.847 968.686,692.385C970.47,691.923 972.055,691.196 973.442,690.206C974.829,689.215 975.951,687.894 976.81,686.243C977.669,684.592 978.098,682.577 978.098,680.2C978.098,679.011 977.867,677.657 977.404,676.138C976.942,674.619 976.216,673.232 975.225,671.977C974.234,670.722 972.979,669.665 971.46,668.807C969.941,667.948 968.125,667.519 966.012,667.519C963.898,667.519 962.016,668.014 960.365,669.005C958.713,669.995 957.36,671.283 956.303,672.868C955.246,674.454 954.454,676.237 953.925,678.218C953.397,680.2 953.133,682.181 953.133,684.162L952.934,723.79C953.067,725.639 953.397,727.455 953.925,729.239C954.454,731.022 955.213,732.64 956.204,734.093C957.194,735.546 958.449,736.735 959.968,737.659C961.487,738.584 963.304,739.046 965.417,739.046C967.531,739.046 969.413,738.551 971.064,737.56C972.715,736.57 974.069,735.282 975.126,733.697C976.183,732.112 977.008,730.328 977.603,728.347C978.197,726.366 978.494,724.384 978.494,722.403L978.494,708.93Z" style="fill:white;fill-rule:nonzero;"/>
        <path d="M1064.88,679.605C1064.88,683.172 1064.19,686.705 1062.8,690.206C1061.41,693.706 1059.37,696.909 1056.66,699.815C1053.95,702.721 1050.62,705.099 1046.65,706.948C1042.69,708.797 1038.2,709.788 1033.18,709.92L1023.08,709.92L1023.08,738.056L1031.79,738.056L1031.79,755.888L1005.24,755.888L1005.24,709.92L1000.29,709.92L1000.29,692.286L1005.24,692.286L1005.24,649.885L1031.79,649.885C1036.94,649.885 1041.54,650.743 1045.56,652.46C1049.59,654.177 1053.06,656.423 1055.97,659.197C1058.87,661.971 1061.09,665.141 1062.6,668.708C1064.12,672.274 1064.88,675.907 1064.88,679.605ZM1033.58,692.286C1037.01,692.286 1040.18,691.361 1043.09,689.512C1045.99,687.663 1047.45,684.493 1047.45,680.001C1047.45,675.378 1045.86,672.175 1042.69,670.392C1039.52,668.609 1035.89,667.717 1031.79,667.717L1023.08,667.717L1023.08,692.286L1033.58,692.286Z" style="fill:white;fill-rule:nonzero;"/>
        <path d="M1132.45,650.875L1132.45,755.492L1114.62,755.492L1114.62,709.524L1086.68,709.524L1086.68,755.69L1068.85,755.69L1068.85,649.885L1096.19,649.885L1096.19,667.717L1086.68,667.717L1086.68,691.692L1114.62,691.692L1114.62,650.875L1132.45,650.875Z" style="fill:white;fill-rule:nonzero;"/>
        <path d="M1196.84,649.885L1196.84,676.831L1179.01,676.831L1179.01,667.717L1161.57,667.717L1161.57,675.048L1161.77,675.048C1161.77,679.671 1163.36,683.568 1166.53,686.738C1169.7,689.908 1173.59,691.493 1178.22,691.493L1196.84,691.692L1196.84,709.524L1170.89,709.524C1166.26,709.524 1162.37,711.109 1159.2,714.279C1156.03,717.449 1154.44,721.346 1154.44,725.969L1154.24,738.254L1196.84,738.254L1196.84,755.69L1136.41,755.69L1136.41,725.969C1136.41,720.025 1137.8,714.576 1140.57,709.623C1143.35,704.67 1147.11,700.542 1151.87,697.239C1151.2,696.447 1150.61,695.654 1150.08,694.862C1149.55,694.069 1148.96,693.211 1148.3,692.286C1148.17,692.022 1148.1,691.89 1148.1,691.89C1145.19,686.738 1143.74,681.124 1143.74,675.048L1143.54,667.717L1143.54,649.885L1196.84,649.885Z" style="fill:white;fill-rule:nonzero;"/>
        <path d="M1260.25,667.717L1239.44,667.717L1239.44,756.086L1214.28,756.086L1214.28,738.254L1221.61,738.254L1221.61,667.717L1200.81,667.717L1200.81,649.885L1260.25,649.885L1260.25,667.717Z" style="fill:white;fill-rule:nonzero;"/>
        <path d="M1324.05,755.69L1282.04,756.086L1264.21,755.69L1264.21,716.855L1282.04,716.855L1282.04,738.254L1306.02,738.254L1306.02,708.93L1296.11,708.93C1294.26,708.93 1291.55,708.401 1287.99,707.344C1284.42,706.288 1280.88,704.471 1277.38,701.896C1273.88,699.32 1270.81,695.852 1268.17,691.493C1265.53,687.134 1264.21,681.587 1264.21,674.85L1264.21,649.885L1323.85,649.885L1323.85,676.831L1306.02,676.831L1306.02,667.717L1282.24,667.717L1282.24,675.841C1282.24,680.86 1283.86,684.658 1287.09,687.233C1290.33,689.809 1294.13,691.097 1298.49,691.097L1323.85,691.295L1323.85,708.93L1324.05,738.254L1324.05,755.69Z" style="fill:white;fill-rule:nonzero;"/>
        <path d="M1328.01,755.888L1330.59,738.056L1348.42,735.282L1348.42,755.888L1328.01,755.888Z" style="fill:white;fill-rule:nonzero;"/>
        <path d="M1377.54,667.717L1377.54,738.254L1384.68,738.254L1384.68,756.086L1352.38,756.086L1352.38,738.254L1359.51,738.254L1359.51,667.717L1352.38,667.717L1352.38,649.885L1384.68,649.885L1384.68,667.717L1377.54,667.717Z" style="fill:white;fill-rule:nonzero;"/>
        <path d="M1449.27,678.813C1449.27,679.077 1449.27,679.968 1449.27,681.487C1449.27,683.007 1449.3,684.856 1449.37,687.035C1449.43,689.215 1449.5,691.659 1449.57,694.366C1449.63,697.074 1449.66,699.815 1449.66,702.589C1449.66,709.194 1449.73,716.525 1449.86,724.582C1449.86,730.13 1448.94,734.786 1447.09,738.551C1445.24,742.316 1443.19,745.321 1440.95,747.566C1438.31,750.208 1435.33,752.256 1432.03,753.709C1431.37,753.973 1430.74,754.237 1430.15,754.501C1429.56,754.765 1428.83,754.997 1427.97,755.195C1427.11,755.393 1425.99,755.525 1424.6,755.591C1423.21,755.657 1421.46,755.69 1419.35,755.69C1415.78,755.69 1412.18,755.096 1408.55,753.907C1404.92,752.718 1401.62,750.836 1398.64,748.26C1395.67,745.684 1393.26,742.349 1391.41,738.254C1389.56,734.159 1388.64,729.272 1388.64,723.592L1388.64,683.172C1388.64,679.341 1389.17,675.841 1390.22,672.67C1391.28,669.5 1392.67,666.66 1394.38,664.15C1396.1,661.641 1398.02,659.428 1400.13,657.513C1402.25,655.597 1404.36,654.045 1406.47,652.857C1408.32,651.8 1410.24,651.106 1412.22,650.776C1414.2,650.446 1416.25,650.281 1418.36,650.281C1430.78,650.281 1439.89,655.829 1445.7,666.924C1446.5,668.377 1447.29,670.359 1448.08,672.868C1448.87,675.378 1449.27,677.36 1449.27,678.813ZM1432.03,708.93C1429.65,710.383 1427.11,711.208 1424.4,711.406C1421.69,711.604 1418.82,711.703 1415.78,711.703L1415.78,693.277L1416.78,693.277C1418.62,693.145 1420.44,692.847 1422.22,692.385C1424.01,691.923 1425.59,691.196 1426.98,690.206C1428.37,689.215 1429.49,687.894 1430.35,686.243C1431.21,684.592 1431.63,682.577 1431.63,680.2C1431.63,679.011 1431.4,677.657 1430.94,676.138C1430.48,674.619 1429.75,673.232 1428.76,671.977C1427.77,670.722 1426.52,669.665 1425,668.807C1423.48,667.948 1421.66,667.519 1419.55,667.519C1417.43,667.519 1415.55,668.014 1413.9,669.005C1412.25,669.995 1410.9,671.283 1409.84,672.868C1408.78,674.454 1407.99,676.237 1407.46,678.218C1406.93,680.2 1406.67,682.181 1406.67,684.162L1406.47,723.79C1406.6,725.639 1406.93,727.455 1407.46,729.239C1407.99,731.022 1408.75,732.64 1409.74,734.093C1410.73,735.546 1411.99,736.735 1413.51,737.659C1415.02,738.584 1416.84,739.046 1418.95,739.046C1421.07,739.046 1422.95,738.551 1424.6,737.56C1426.25,736.57 1427.61,735.282 1428.66,733.697C1429.72,732.112 1430.55,730.328 1431.14,728.347C1431.73,726.366 1432.03,724.384 1432.03,722.403L1432.03,708.93Z" style="fill:white;fill-rule:nonzero;"/>
    </g>
</svg>
