<?xml version="1.0" standalone="no"?><!DOCTYPE svg PUBLIC "-//W3C//DTD SVG 1.1//EN" "http://www.w3.org/Graphics/SVG/1.1/DTD/svg11.dtd"><svg width="100%" height="100%" viewBox="0 0 140 64" version="1.1" xmlns="http://www.w3.org/2000/svg" xmlns:xlink="http://www.w3.org/1999/xlink" xml:space="preserve" style="fill-rule:evenodd;clip-rule:evenodd;stroke-linecap:square;stroke-miterlimit:1.41421;"><g><g><path d="M19.56,28.202l0,5.473l-8.733,0c-0.451,0 -0.881,-0.041 -1.291,-0.123c-0.41,-0.082 -0.841,-0.184 -1.292,-0.307c-2.255,-0.902 -4.059,-2.194 -5.412,-3.875c-1.353,-1.681 -2.029,-3.772 -2.029,-6.273l0,-22.017l0.246,0l0,-0.307l18.511,0l0,8.364l-5.596,0l0,-2.829l-7.626,0l0,17.097c0.082,1.312 0.615,2.429 1.599,3.351c0.984,0.923 2.152,1.384 3.505,1.384l0,0.062l8.118,0Z" style="fill:#fff;fill-rule:nonzero;stroke-width:0.75px;stroke:#fff;"/><path d="M45.049,33.614l-5.535,0l0,-9.164c0,-1.271 -0.42,-2.378 -1.26,-3.321c-0.841,-0.943 -1.856,-1.517 -3.045,-1.722l-3.444,0l0,8.733l2.706,0l0,5.474l-8.241,0l0,-14.207l-1.537,0l0,-5.473l1.537,0l0,-13.161l16.913,0l0,8.917c-0.082,0.779 -0.236,1.517 -0.461,2.214c-0.226,0.697 -0.503,1.374 -0.831,2.03c-0.41,0.697 -0.84,1.291 -1.291,1.783c1.312,1.066 2.368,2.245 3.167,3.536c0.8,1.292 1.24,2.799 1.322,4.521c0.041,0.164 0.062,0.389 0.062,0.676l-0.062,9.164ZM32.503,13.872c1.435,0 2.645,-0.502 3.629,-1.507c0.984,-1.004 1.476,-2.224 1.476,-3.659l0,-2.398l-5.843,0l0,7.564l0.738,0Z" style="fill:#fff;fill-rule:nonzero;stroke-width:0.75px;stroke:#fff;"/><path d="M68.939,23.712c-0.041,0.123 -0.061,0.308 -0.061,0.554c-0.205,1.722 -0.779,3.28 -1.722,4.674c-0.943,1.394 -2.173,2.521 -3.69,3.382c-0.041,0 -0.082,0.021 -0.123,0.062c-0.697,0.369 -1.456,0.666 -2.276,0.891c-0.82,0.226 -1.681,0.339 -2.583,0.339l-2.337,0l0,-5.474l2.214,0l0,-0.061c1.312,0 2.44,-0.431 3.383,-1.292c0.943,-0.861 1.476,-1.927 1.599,-3.198c0.041,-0.041 0.061,-0.082 0.061,-0.123l0,-1.906l-2.521,0c-0.287,0 -0.759,-0.041 -1.415,-0.123c-0.656,-0.082 -1.373,-0.257 -2.152,-0.523c-0.779,-0.267 -1.589,-0.636 -2.429,-1.107c-0.841,-0.472 -1.61,-1.107 -2.307,-1.907c-0.697,-0.799 -1.26,-1.773 -1.691,-2.921c-0.43,-1.148 -0.646,-2.521 -0.646,-4.12l0,-10.086l5.535,0l0,10.701c0,0.656 0.144,1.271 0.431,1.845c0.287,0.574 0.666,1.066 1.138,1.476c0.471,0.41 1.014,0.727 1.629,0.953c0.615,0.225 1.251,0.338 1.907,0.338l2.521,0l0,-15.313l5.535,0l0,22.939Z" style="fill:#fff;fill-rule:nonzero;stroke-width:0.75px;stroke:#fff;"/><path d="M94.121,9.998c0,1.107 -0.215,2.203 -0.646,3.29c-0.43,1.086 -1.066,2.081 -1.906,2.983c-0.841,0.902 -1.876,1.64 -3.106,2.214c-1.23,0.574 -2.624,0.881 -4.182,0.922l-3.136,0l0,8.733l2.706,0l0,5.535l-8.241,0l0,-14.268l-1.538,0l0,-5.473l1.538,0l0,-13.161l8.241,0c1.599,0 3.023,0.266 4.274,0.799c1.25,0.533 2.327,1.23 3.229,2.091c0.902,0.861 1.588,1.845 2.06,2.952c0.471,1.107 0.707,2.235 0.707,3.383ZM84.404,13.934c1.066,0 2.05,-0.287 2.952,-0.861c0.902,-0.574 1.353,-1.558 1.353,-2.952c0,-1.435 -0.492,-2.43 -1.476,-2.983c-0.984,-0.554 -2.111,-0.83 -3.382,-0.83l-2.706,0l0,7.626l3.259,0Z" style="fill:#fff;fill-rule:nonzero;stroke-width:0.75px;stroke:#fff;"/><path d="M115.573,6.185l-6.457,0l0,27.429l-7.811,0l0,-5.535l2.276,0l0,-21.894l-6.458,0l0,-5.535l18.45,0l0,5.535Z" style="fill:#fff;fill-rule:nonzero;stroke-width:0.75px;stroke:#fff;"/><path d="M139.118,9.752c0,0.082 0,0.358 0,0.83c0,0.471 0.01,1.045 0.03,1.722c0.021,0.676 0.041,1.435 0.062,2.275c0.02,0.841 0.031,1.692 0.031,2.553c0,2.05 0.02,4.325 0.061,6.826c0,1.722 -0.287,3.167 -0.861,4.336c-0.574,1.168 -1.209,2.101 -1.906,2.798c-0.82,0.82 -1.743,1.456 -2.768,1.907c-0.205,0.082 -0.4,0.164 -0.584,0.246c-0.185,0.082 -0.41,0.153 -0.677,0.215c-0.266,0.061 -0.615,0.102 -1.045,0.123c-0.431,0.02 -0.974,0.031 -1.63,0.031c-1.107,0 -2.224,-0.185 -3.352,-0.554c-1.127,-0.369 -2.152,-0.953 -3.075,-1.753c-0.922,-0.799 -1.67,-1.834 -2.244,-3.105c-0.574,-1.271 -0.861,-2.788 -0.861,-4.551l0,-12.546c0,-1.189 0.164,-2.276 0.492,-3.26c0.328,-0.984 0.758,-1.865 1.291,-2.644c0.533,-0.779 1.128,-1.466 1.784,-2.061c0.656,-0.594 1.312,-1.076 1.968,-1.445c0.574,-0.328 1.168,-0.543 1.783,-0.646c0.615,-0.102 1.251,-0.153 1.907,-0.153c3.854,0 6.683,1.722 8.487,5.166c0.246,0.451 0.492,1.066 0.738,1.845c0.246,0.779 0.369,1.394 0.369,1.845ZM133.767,19.1c-0.738,0.451 -1.527,0.707 -2.368,0.768c-0.84,0.062 -1.732,0.093 -2.675,0.093l0,-5.72l0.308,0c0.574,-0.041 1.137,-0.133 1.691,-0.277c0.553,-0.143 1.045,-0.369 1.476,-0.676c0.43,-0.308 0.779,-0.718 1.045,-1.23c0.267,-0.513 0.4,-1.138 0.4,-1.876c0,-0.369 -0.072,-0.789 -0.215,-1.261c-0.144,-0.471 -0.369,-0.902 -0.677,-1.291c-0.307,-0.39 -0.697,-0.718 -1.168,-0.984c-0.472,-0.267 -1.035,-0.4 -1.691,-0.4c-0.656,0 -1.241,0.154 -1.753,0.461c-0.513,0.308 -0.933,0.708 -1.261,1.2c-0.328,0.492 -0.574,1.045 -0.738,1.66c-0.164,0.615 -0.246,1.23 -0.246,1.845l-0.061,12.3c0.041,0.574 0.143,1.138 0.307,1.691c0.164,0.554 0.4,1.056 0.707,1.507c0.308,0.451 0.697,0.82 1.169,1.107c0.471,0.287 1.035,0.431 1.691,0.431c0.656,0 1.24,-0.154 1.753,-0.462c0.512,-0.307 0.933,-0.707 1.261,-1.199c0.328,-0.492 0.584,-1.045 0.768,-1.66c0.185,-0.615 0.277,-1.23 0.277,-1.845l0,-4.182Z" style="fill:#fff;fill-rule:nonzero;stroke-width:0.75px;stroke:#fff;"/></g><g><path d="M15.703,44.63c0,0.831 -0.162,1.654 -0.485,2.47c-0.323,0.816 -0.8,1.562 -1.432,2.24c-0.631,0.677 -1.408,1.231 -2.331,1.662c-0.924,0.431 -1.971,0.662 -3.14,0.693l-2.355,0l0,6.557l2.031,0l0,4.155l-6.187,0l0,-10.712l-1.154,0l0,-4.11l1.154,0l0,-9.882l6.187,0c1.201,0 2.271,0.201 3.21,0.601c0.939,0.4 1.747,0.923 2.424,1.57c0.677,0.646 1.193,1.385 1.547,2.216c0.354,0.831 0.531,1.678 0.531,2.54ZM8.407,47.585c0.8,0 1.539,-0.215 2.216,-0.646c0.678,-0.431 1.016,-1.17 1.016,-2.217c0,-1.077 -0.369,-1.824 -1.108,-2.239c-0.739,-0.416 -1.585,-0.624 -2.54,-0.624l-2.031,0l0,5.726l2.447,0Z" style="fill:#fff;fill-rule:nonzero;stroke-width:0.75px;stroke:#fff;"/><path d="M33.316,62.442l-4.156,0l0,-6.881c0,-0.954 -0.315,-1.785 -0.946,-2.493c-0.631,-0.708 -1.393,-1.139 -2.286,-1.293l-2.586,0l0,6.557l2.032,0l0,4.11l-6.188,0l0,-10.667l-1.154,0l0,-4.11l1.154,0l0,-9.881l12.699,0l0,6.695c-0.062,0.585 -0.177,1.139 -0.347,1.663c-0.169,0.523 -0.377,1.031 -0.623,1.523c-0.308,0.524 -0.631,0.97 -0.97,1.34c0.985,0.8 1.778,1.685 2.378,2.655c0.601,0.969 0.932,2.101 0.993,3.394c0.031,0.123 0.046,0.292 0.046,0.507l-0.046,6.881ZM23.896,47.619c1.078,0 1.986,-0.377 2.725,-1.131c0.738,-0.754 1.108,-1.67 1.108,-2.748l0,-1.8l-4.387,0l0,5.679l0.554,0Z" style="fill:#fff;fill-rule:nonzero;stroke-width:0.75px;stroke:#fff;"/><path d="M50.596,44.433c0,0.062 0,0.269 0,0.624c0,0.354 0.007,0.784 0.023,1.292c0.015,0.508 0.03,1.078 0.046,1.709c0.015,0.631 0.023,1.27 0.023,1.916c0,1.539 0.015,3.248 0.046,5.126c0,1.293 -0.215,2.378 -0.646,3.255c-0.431,0.877 -0.909,1.578 -1.432,2.101c-0.616,0.616 -1.308,1.093 -2.078,1.432c-0.154,0.061 -0.3,0.123 -0.438,0.184c-0.139,0.062 -0.308,0.116 -0.508,0.162c-0.2,0.046 -0.462,0.077 -0.785,0.092c-0.324,0.016 -0.731,0.023 -1.224,0.023c-0.831,0 -1.67,-0.138 -2.517,-0.415c-0.846,-0.277 -1.616,-0.716 -2.308,-1.316c-0.693,-0.601 -1.255,-1.378 -1.686,-2.332c-0.431,-0.954 -0.646,-2.093 -0.646,-3.417l0,-9.42c0,-0.893 0.123,-1.709 0.369,-2.447c0.246,-0.739 0.57,-1.401 0.97,-1.986c0.4,-0.585 0.846,-1.1 1.339,-1.547c0.493,-0.446 0.985,-0.808 1.478,-1.085c0.431,-0.246 0.877,-0.408 1.339,-0.485c0.461,-0.077 0.939,-0.115 1.431,-0.115c2.894,0 5.018,1.293 6.372,3.879c0.185,0.338 0.37,0.8 0.554,1.385c0.185,0.585 0.278,1.047 0.278,1.385ZM46.578,51.452c-0.554,0.338 -1.146,0.531 -1.777,0.577c-0.632,0.046 -1.301,0.069 -2.009,0.069l0,-4.294l0.231,0c0.431,-0.031 0.854,-0.1 1.27,-0.208c0.415,-0.108 0.785,-0.277 1.108,-0.508c0.323,-0.231 0.585,-0.538 0.785,-0.923c0.2,-0.385 0.3,-0.855 0.3,-1.409c0,-0.277 -0.054,-0.592 -0.162,-0.946c-0.107,-0.354 -0.277,-0.677 -0.508,-0.97c-0.231,-0.292 -0.523,-0.539 -0.877,-0.739c-0.354,-0.2 -0.777,-0.3 -1.27,-0.3c-0.492,0 -0.931,0.116 -1.316,0.346c-0.385,0.231 -0.7,0.531 -0.946,0.901c-0.247,0.369 -0.431,0.785 -0.555,1.247c-0.123,0.461 -0.184,0.923 -0.184,1.385l-0.046,9.235c0.03,0.431 0.107,0.854 0.23,1.27c0.124,0.415 0.301,0.793 0.532,1.131c0.23,0.339 0.523,0.616 0.877,0.831c0.354,0.216 0.777,0.324 1.27,0.324c0.492,0 0.931,-0.116 1.316,-0.347c0.384,-0.231 0.7,-0.531 0.946,-0.9c0.247,-0.37 0.439,-0.785 0.577,-1.247c0.139,-0.462 0.208,-0.923 0.208,-1.385l0,-3.14Z" style="fill:#fff;fill-rule:nonzero;stroke-width:0.75px;stroke:#fff;"/><path d="M69.066,44.71c0,0.831 -0.162,1.655 -0.485,2.471c-0.323,0.815 -0.801,1.562 -1.432,2.239c-0.631,0.677 -1.408,1.231 -2.332,1.662c-0.923,0.431 -1.97,0.662 -3.139,0.693l-2.355,0l0,6.557l2.031,0l0,4.156l-6.187,0l0,-10.713l-1.155,0l0,-4.11l1.155,0l0,-9.881l6.187,0c1.201,0 2.271,0.2 3.209,0.6c0.939,0.4 1.747,0.924 2.425,1.57c0.677,0.647 1.193,1.385 1.547,2.217c0.354,0.831 0.531,1.677 0.531,2.539ZM61.77,47.665c0.8,0 1.539,-0.215 2.216,-0.646c0.678,-0.431 1.016,-1.17 1.016,-2.216c0,-1.078 -0.369,-1.824 -1.108,-2.24c-0.739,-0.416 -1.585,-0.623 -2.54,-0.623l-2.031,0l0,5.725l2.447,0Z" style="fill:#fff;fill-rule:nonzero;stroke-width:0.75px;stroke:#fff;"/><path d="M87.573,38.015l0,24.38l-4.155,0l0,-10.712l-6.511,0l0,10.759l-4.156,0l0,-24.658l6.372,0l0,4.156l-2.216,0l0,5.587l6.511,0l0,-9.512l4.155,0Z" style="fill:#fff;fill-rule:nonzero;stroke-width:0.75px;stroke:#fff;"/><path d="M105.093,37.784l0,6.28l-4.156,0l0,-2.124l-4.063,0l0,1.708l0.046,0c0,1.078 0.369,1.986 1.108,2.725c0.739,0.738 1.647,1.108 2.724,1.108l4.341,0.046l0,4.156l-6.049,0c-1.078,0 -1.986,0.369 -2.724,1.108c-0.739,0.739 -1.109,1.647 -1.109,2.724l-0.046,2.863l9.928,0l0,4.064l-14.084,0l0,-6.927c0,-1.385 0.324,-2.655 0.97,-3.809c0.646,-1.155 1.524,-2.117 2.632,-2.886c-0.154,-0.185 -0.292,-0.37 -0.416,-0.554c-0.123,-0.185 -0.261,-0.385 -0.415,-0.601c-0.031,-0.061 -0.046,-0.092 -0.046,-0.092c-0.678,-1.2 -1.016,-2.509 -1.016,-3.925l-0.046,-1.708l0,-4.156l12.421,0Z" style="fill:#fff;fill-rule:nonzero;stroke-width:0.75px;stroke:#fff;"/><path d="M122.416,41.94l-4.848,0l0,20.594l-5.865,0l0,-4.156l1.709,0l0,-16.438l-4.849,0l0,-4.156l13.853,0l0,4.156Z" style="fill:#fff;fill-rule:nonzero;stroke-width:0.75px;stroke:#fff;"/><path d="M139.302,62.442l-9.789,0.092l-4.156,-0.092l0,-9.051l4.156,0l0,4.987l5.587,0l0,-6.834l-2.309,0c-0.431,0 -1.062,-0.123 -1.893,-0.369c-0.831,-0.247 -1.655,-0.67 -2.47,-1.27c-0.816,-0.6 -1.532,-1.408 -2.148,-2.424c-0.615,-1.016 -0.923,-2.309 -0.923,-3.879l0,-5.818l13.899,0l0,6.28l-4.156,0l0,-2.124l-5.541,0l0,1.893c0,1.17 0.377,2.055 1.131,2.655c0.754,0.6 1.639,0.9 2.655,0.9l5.911,0.047l0,4.109l0.046,6.834l0,4.064Z" style="fill:#fff;fill-rule:nonzero;stroke-width:0.75px;stroke:#fff;"/></g></g></svg>