<?xml version="1.0" standalone="no"?><!DOCTYPE svg PUBLIC "-//W3C//DTD SVG 1.1//EN" "http://www.w3.org/Graphics/SVG/1.1/DTD/svg11.dtd"><svg width="100%" height="100%" viewBox="0 0 491 337" version="1.1" xmlns="http://www.w3.org/2000/svg" xmlns:xlink="http://www.w3.org/1999/xlink" xml:space="preserve" style="fill-rule:evenodd;clip-rule:evenodd;stroke-linejoin:round;stroke-miterlimit:1.41421;"><path d="M245.074,309.445l-218.13,-218.13l64.371,-64.371l218.13,218.13l-64.371,64.371Z" style="fill:#fff;"/><path d="M325.001,245.074l-79.927,79.927l-233.686,-233.686l79.927,-79.927l233.686,233.686ZM42.501,91.315l202.573,202.573l48.814,-48.814l-202.573,-202.573l-48.814,48.814Z" style="fill:#fff;"/><path d="M463.204,91.315l-218.13,218.13l-64.37,-64.371l218.13,-218.13l64.37,64.371Z" style="fill:#fff;"/><path d="M398.834,11.388l79.927,79.927l-233.687,233.686c0,0 -79.926,-79.927 -79.926,-79.927l0,0l233.686,-233.686l0,0ZM196.26,245.074l48.814,48.814l202.574,-202.573l-48.814,-48.814l-202.574,202.573Z" style="fill:#fff;"/></svg>