<?xml version="1.0" standalone="no"?><!DOCTYPE svg PUBLIC "-//W3C//DTD SVG 1.1//EN" "http://www.w3.org/Graphics/SVG/1.1/DTD/svg11.dtd"><svg width="100%" height="100%" viewBox="0 0 483 249" version="1.1" xmlns="http://www.w3.org/2000/svg" xmlns:xlink="http://www.w3.org/1999/xlink" xml:space="preserve" style="fill-rule:evenodd;clip-rule:evenodd;stroke-linecap:square;stroke-miterlimit:1.41421;"><g><path d="M75.024,108.339l0,21.36l-34.08,0c-1.76,0 -3.44,-0.16 -5.04,-0.48c-1.6,-0.32 -3.28,-0.72 -5.04,-1.2c-8.8,-3.52 -15.84,-8.56 -21.12,-15.12c-5.28,-6.56 -7.92,-14.72 -7.92,-24.48l0,-85.92l0.96,0l0,-1.2l72.24,0l0,32.64l-21.84,0l0,-11.04l-29.76,0l0,66.72c0.32,5.12 2.4,9.48 6.24,13.08c3.84,3.6 8.4,5.4 13.68,5.4l0,0.24l31.68,0Z" style="fill:#fff;fill-rule:nonzero;stroke-width:1.5px;stroke:#fff;"/><path d="M163.104,129.459l-21.6,0l0,-35.76c0,-4.96 -1.64,-9.28 -4.92,-12.96c-3.28,-3.68 -7.24,-5.92 -11.88,-6.72l-13.44,0l0,34.08l10.56,0l0,21.36l-32.16,0l0,-55.44l-6,0l0,-21.36l6,0l0,-51.36l66,0l0,34.8c-0.32,3.04 -0.92,5.92 -1.8,8.64c-0.88,2.72 -1.96,5.36 -3.24,7.92c-1.6,2.72 -3.28,5.04 -5.04,6.96c5.12,4.16 9.24,8.76 12.36,13.8c3.12,5.04 4.84,10.92 5.16,17.64c0.16,0.64 0.24,1.52 0.24,2.64l-0.24,35.76ZM114.144,52.419c5.6,0 10.32,-1.96 14.16,-5.88c3.84,-3.92 5.76,-8.68 5.76,-14.28l0,-9.36l-22.8,0l0,29.52l2.88,0Z" style="fill:#fff;fill-rule:nonzero;stroke-width:1.5px;stroke:#fff;"/><path d="M240.144,90.819c-0.16,0.48 -0.24,1.2 -0.24,2.16c-0.8,6.72 -3.04,12.8 -6.72,18.24c-3.68,5.44 -8.48,9.84 -14.4,13.2c-0.16,0 -0.32,0.08 -0.48,0.24c-2.72,1.44 -5.68,2.6 -8.88,3.48c-3.2,0.88 -6.56,1.32 -10.08,1.32l-9.12,0l0,-21.36l8.64,0l0,-0.24c5.12,0 9.52,-1.68 13.2,-5.04c3.68,-3.36 5.76,-7.52 6.24,-12.48c0.16,-0.16 0.24,-0.32 0.24,-0.48l0,-7.44l-9.84,0c-1.12,0 -2.96,-0.16 -5.52,-0.48c-2.56,-0.32 -5.36,-1 -8.4,-2.04c-3.04,-1.04 -6.2,-2.48 -9.48,-4.32c-3.28,-1.84 -6.28,-4.32 -9,-7.44c-2.72,-3.12 -4.92,-6.92 -6.6,-11.4c-1.68,-4.48 -2.52,-9.84 -2.52,-16.08l0,-39.36l21.6,0l0,41.76c0,2.56 0.56,4.96 1.68,7.2c1.12,2.24 2.6,4.16 4.44,5.76c1.84,1.6 3.96,2.84 6.36,3.72c2.4,0.88 4.88,1.32 7.44,1.32l9.84,0l0,-59.76l21.6,0l0,89.52Z" style="fill:#fff;fill-rule:nonzero;stroke-width:1.5px;stroke:#fff;"/><path d="M327.024,37.299c0,4.32 -0.84,8.6 -2.52,12.84c-1.68,4.24 -4.16,8.12 -7.44,11.64c-3.28,3.52 -7.32,6.4 -12.12,8.64c-4.8,2.24 -10.24,3.44 -16.32,3.6l-12.24,0l0,34.08l10.56,0l0,21.6l-32.16,0l0,-55.68l-6,0l0,-21.36l6,0l0,-51.36l32.16,0c6.24,0 11.8,1.04 16.68,3.12c4.88,2.08 9.08,4.8 12.6,8.16c3.52,3.36 6.2,7.2 8.04,11.52c1.84,4.32 2.76,8.72 2.76,13.2ZM289.104,52.659c4.16,0 8,-1.12 11.52,-3.36c3.52,-2.24 5.28,-6.08 5.28,-11.52c0,-5.6 -1.92,-9.48 -5.76,-11.64c-3.84,-2.16 -8.24,-3.24 -13.2,-3.24l-10.56,0l0,29.76l12.72,0Z" style="fill:#fff;fill-rule:nonzero;stroke-width:1.5px;stroke:#fff;"/><path d="M402.864,22.899l-25.2,0l0,107.04l-30.48,0l0,-21.6l8.88,0l0,-85.44l-25.2,0l0,-21.6l72,0l0,21.6Z" style="fill:#fff;fill-rule:nonzero;stroke-width:1.5px;stroke:#fff;"/><path d="M480.144,36.339c0,0.32 0,1.4 0,3.24c0,1.84 0.04,4.08 0.12,6.72c0.08,2.64 0.16,5.6 0.24,8.88c0.08,3.28 0.12,6.6 0.12,9.96c0,8 0.08,16.88 0.24,26.64c0,6.72 -1.12,12.36 -3.36,16.92c-2.24,4.56 -4.72,8.2 -7.44,10.92c-3.2,3.2 -6.8,5.68 -10.8,7.44c-0.8,0.32 -1.56,0.64 -2.28,0.96c-0.72,0.32 -1.6,0.6 -2.64,0.84c-1.04,0.24 -2.4,0.4 -4.08,0.48c-1.68,0.08 -3.8,0.12 -6.36,0.12c-4.32,0 -8.68,-0.72 -13.08,-2.16c-4.4,-1.44 -8.4,-3.72 -12,-6.84c-3.6,-3.12 -6.52,-7.16 -8.76,-12.12c-2.24,-4.96 -3.36,-10.88 -3.36,-17.76l0,-48.96c0,-4.64 0.64,-8.88 1.92,-12.72c1.28,-3.84 2.96,-7.28 5.04,-10.32c2.08,-3.04 4.4,-5.72 6.96,-8.04c2.56,-2.32 5.12,-4.2 7.68,-5.64c2.24,-1.28 4.56,-2.12 6.96,-2.52c2.4,-0.4 4.88,-0.6 7.44,-0.6c15.04,0 26.08,6.72 33.12,20.16c0.96,1.76 1.92,4.16 2.88,7.2c0.96,3.04 1.44,5.44 1.44,7.2ZM459.264,72.819c-2.88,1.76 -5.96,2.76 -9.24,3c-3.28,0.24 -6.76,0.36 -10.44,0.36l0,-22.32l1.2,0c2.24,-0.16 4.44,-0.52 6.6,-1.08c2.16,-0.56 4.08,-1.44 5.76,-2.64c1.68,-1.2 3.04,-2.8 4.08,-4.8c1.04,-2 1.56,-4.44 1.56,-7.32c0,-1.44 -0.28,-3.08 -0.84,-4.92c-0.56,-1.84 -1.44,-3.52 -2.64,-5.04c-1.2,-1.52 -2.72,-2.8 -4.56,-3.84c-1.84,-1.04 -4.04,-1.56 -6.6,-1.56c-2.56,0 -4.84,0.6 -6.84,1.8c-2,1.2 -3.64,2.76 -4.92,4.68c-1.28,1.92 -2.24,4.08 -2.88,6.48c-0.64,2.4 -0.96,4.8 -0.96,7.2l-0.24,48c0.16,2.24 0.56,4.44 1.2,6.6c0.64,2.16 1.56,4.12 2.76,5.88c1.2,1.76 2.72,3.2 4.56,4.32c1.84,1.12 4.04,1.68 6.6,1.68c2.56,0 4.84,-0.6 6.84,-1.8c2,-1.2 3.64,-2.76 4.92,-4.68c1.28,-1.92 2.28,-4.08 3,-6.48c0.72,-2.4 1.08,-4.8 1.08,-7.2l0,-16.32Z" style="fill:#fff;fill-rule:nonzero;stroke-width:1.5px;stroke:#fff;"/><path d="M62.424,175.314c0,3.375 -0.656,6.719 -1.969,10.031c-1.312,3.313 -3.25,6.344 -5.812,9.094c-2.563,2.75 -5.719,5 -9.469,6.75c-3.75,1.75 -8,2.688 -12.75,2.813l-9.562,0l0,26.625l8.25,0l0,16.875l-25.125,0l0,-43.5l-4.688,0l0,-16.688l4.688,0l0,-40.125l25.125,0c4.875,0 9.218,0.813 13.031,2.438c3.812,1.625 7.094,3.75 9.844,6.375c2.75,2.625 4.843,5.625 6.281,9c1.437,3.375 2.156,6.812 2.156,10.312ZM32.799,187.314c3.25,0 6.25,-0.875 9,-2.625c2.75,-1.75 4.125,-4.75 4.125,-9c0,-4.375 -1.5,-7.406 -4.5,-9.094c-3,-1.687 -6.437,-2.531 -10.312,-2.531l-8.25,0l0,23.25l9.937,0Z" style="fill:#fff;fill-rule:nonzero;stroke-width:1.5px;stroke:#fff;"/><path d="M135.158,247.314l-16.875,0l0,-27.937c0,-3.875 -1.281,-7.25 -3.844,-10.125c-2.562,-2.875 -5.656,-4.625 -9.281,-5.25l-10.5,0l0,26.625l8.25,0l0,16.687l-25.125,0l0,-43.312l-4.688,0l0,-16.688l4.688,0l0,-40.125l51.562,0l0,27.188c-0.25,2.375 -0.718,4.625 -1.406,6.75c-0.687,2.125 -1.531,4.187 -2.531,6.187c-1.25,2.125 -2.563,3.938 -3.938,5.438c4,3.25 7.219,6.843 9.657,10.781c2.437,3.937 3.781,8.531 4.031,13.781c0.125,0.5 0.187,1.188 0.187,2.063l-0.187,27.937ZM96.908,187.127c4.375,0 8.062,-1.532 11.062,-4.594c3,-3.063 4.5,-6.781 4.5,-11.156l0,-7.313l-17.812,0l0,23.063l2.25,0Z" style="fill:#fff;fill-rule:nonzero;stroke-width:1.5px;stroke:#fff;"/><path d="M203.392,174.564c0,0.25 0,1.094 0,2.531c0,1.438 0.031,3.188 0.093,5.25c0.063,2.063 0.125,4.375 0.188,6.938c0.062,2.562 0.094,5.156 0.094,7.781c0,6.25 0.062,13.188 0.187,20.813c0,5.25 -0.875,9.656 -2.625,13.218c-1.75,3.563 -3.687,6.407 -5.812,8.532c-2.5,2.5 -5.313,4.437 -8.438,5.812c-0.625,0.25 -1.219,0.5 -1.781,0.75c-0.563,0.25 -1.25,0.469 -2.063,0.656c-0.812,0.188 -1.875,0.313 -3.187,0.375c-1.313,0.063 -2.969,0.094 -4.969,0.094c-3.375,0 -6.781,-0.562 -10.219,-1.687c-3.437,-1.125 -6.562,-2.907 -9.375,-5.344c-2.812,-2.438 -5.093,-5.594 -6.843,-9.469c-1.75,-3.875 -2.625,-8.5 -2.625,-13.875l0,-38.25c0,-3.625 0.5,-6.937 1.5,-9.937c1,-3 2.312,-5.688 3.937,-8.063c1.625,-2.375 3.438,-4.469 5.438,-6.281c2,-1.813 4,-3.281 6,-4.406c1.75,-1 3.562,-1.657 5.437,-1.969c1.875,-0.313 3.813,-0.469 5.813,-0.469c11.75,0 20.375,5.25 25.875,15.75c0.75,1.375 1.5,3.25 2.25,5.625c0.75,2.375 1.125,4.25 1.125,5.625ZM187.079,203.064c-2.25,1.375 -4.656,2.156 -7.219,2.344c-2.562,0.187 -5.281,0.281 -8.156,0.281l0,-17.437l0.938,0c1.75,-0.125 3.468,-0.407 5.156,-0.844c1.687,-0.438 3.187,-1.125 4.5,-2.063c1.312,-0.937 2.375,-2.187 3.187,-3.75c0.813,-1.562 1.219,-3.468 1.219,-5.718c0,-1.125 -0.219,-2.407 -0.656,-3.844c-0.438,-1.438 -1.125,-2.75 -2.063,-3.938c-0.937,-1.187 -2.125,-2.187 -3.562,-3c-1.438,-0.812 -3.156,-1.218 -5.156,-1.218c-2,0 -3.782,0.468 -5.344,1.406c-1.563,0.937 -2.844,2.156 -3.844,3.656c-1,1.5 -1.75,3.188 -2.25,5.063c-0.5,1.875 -0.75,3.75 -0.75,5.625l-0.187,37.5c0.125,1.75 0.437,3.468 0.937,5.156c0.5,1.687 1.219,3.219 2.156,4.594c0.938,1.375 2.125,2.5 3.563,3.375c1.437,0.875 3.156,1.312 5.156,1.312c2,0 3.781,-0.469 5.344,-1.406c1.562,-0.938 2.844,-2.156 3.844,-3.656c1,-1.5 1.781,-3.188 2.343,-5.063c0.563,-1.875 0.844,-3.75 0.844,-5.625l0,-12.75Z" style="fill:#fff;fill-rule:nonzero;stroke-width:1.5px;stroke:#fff;"/><path d="M275.75,175.314c0,3.375 -0.656,6.719 -1.968,10.031c-1.313,3.313 -3.25,6.344 -5.813,9.094c-2.562,2.75 -5.719,5 -9.469,6.75c-3.75,1.75 -8,2.688 -12.75,2.813l-9.562,0l0,26.625l8.25,0l0,16.875l-25.125,0l0,-43.5l-4.688,0l0,-16.688l4.688,0l0,-40.125l25.125,0c4.875,0 9.219,0.813 13.031,2.438c3.813,1.625 7.094,3.75 9.844,6.375c2.75,2.625 4.844,5.625 6.281,9c1.438,3.375 2.156,6.812 2.156,10.312ZM246.125,187.314c3.25,0 6.25,-0.875 9,-2.625c2.75,-1.75 4.125,-4.75 4.125,-9c0,-4.375 -1.5,-7.406 -4.5,-9.094c-3,-1.687 -6.437,-2.531 -10.312,-2.531l-8.25,0l0,23.25l9.937,0Z" style="fill:#fff;fill-rule:nonzero;stroke-width:1.5px;stroke:#fff;"/><path d="M346.609,148.127l0,99l-16.875,0l0,-43.5l-26.437,0l0,43.687l-16.875,0l0,-100.125l25.875,0l0,16.875l-9,0l0,22.688l26.437,0l0,-38.625l16.875,0Z" style="fill:#fff;fill-rule:nonzero;stroke-width:1.5px;stroke:#fff;"/><path d="M414.468,147.189l0,25.5l-16.875,0l0,-8.625l-16.5,0l0,6.938l0.187,0c0,4.375 1.5,8.062 4.5,11.062c3,3 6.688,4.5 11.063,4.5l17.625,0.188l0,16.875l-24.563,0c-4.375,0 -8.062,1.5 -11.062,4.5c-3,3 -4.5,6.687 -4.5,11.062l-0.188,11.625l40.313,0l0,16.5l-57.188,0l0,-28.125c0,-5.625 1.313,-10.781 3.938,-15.469c2.625,-4.687 6.187,-8.593 10.687,-11.718c-0.625,-0.75 -1.187,-1.5 -1.687,-2.25c-0.5,-0.75 -1.063,-1.563 -1.688,-2.438c-0.125,-0.25 -0.187,-0.375 -0.187,-0.375c-2.75,-4.875 -4.125,-10.187 -4.125,-15.937l-0.188,-6.938l0,-16.875l50.438,0Z" style="fill:#fff;fill-rule:nonzero;stroke-width:1.5px;stroke:#fff;"/><path d="M481.389,164.064l-19.687,0l0,83.625l-23.813,0l0,-16.875l6.938,0l0,-66.75l-19.688,0l0,-16.875l56.25,0l0,16.875Z" style="fill:#fff;fill-rule:nonzero;stroke-width:1.5px;stroke:#fff;"/></g></svg>